<svg id="Layer_1" xmlns="http://www.w3.org/2000/svg" viewBox="0 0 160 160">
  <defs>
    <style>
      .cls-1 {
        fill: #275c90;
      }
	  .cls-2 {
		fill: #ffffff;
	  }
    </style>
  </defs>
  <polygon class="cls-1" points="126.1860576 55.332884 126.1860576 51.8696272 123.1860576 50.1375715 79.5360331 75.3385603 36.1322856 50.1443464 33.1440654 51.8696272 33.1440654 55.3474104 76.6645732 80.6094343 76.6645732 130.7136823 79.6645732 132.445799 82.6645732 130.7137434 82.6645732 80.459654 126.1860576 55.332884"/>
  <g class="cls-2">
    <path d="M33.1440654,55.3474104v-3.4777832l2.9882202-1.7252808,39.7827204-22.9692478c.1546974-.0893172.2499944-.254379.2499944-.4330095v-5.7731058c0-.3848987-.4166638-.6254615-.7499971-.4330144l-46.2709151,26.7141183c-1.2376172.7145277-2.0000229,2.035043-2.0000229,3.4641148v53.4198306c0,.3849004.4166672.625463.7500005.4330124l5-2.8867594c.1547002-.0893165.2499995-.2543798.2499995-.4330124v-45.8998629Z"/>
    <path d="M83.1650004,20.969403v5.7731711c0,.1786323.0952989.3436954.2499987.433012l39.7710584,22.9619854,3,1.7320557v49.3965059c0,.1786326.0952992.3436959.2499995.4330124l5,2.8867594c.3333333.1924506.7500005-.0481119.7500005-.4330124v-53.4386701c0-1.4290827-.7624172-2.7496063-2.0000492-3.46413l-46.2710141-26.7137056c-.3333333-.1924438-.7499938.0481192-.7499938.4330163Z"/>
    <path d="M82.6645732,130.7137434l-3,1.7320557-3-1.7321167-39.7783177-22.9666797c-.1547018-.0893197-.345304-.0893206-.5000066-.0000024l-5.0006039,2.8871196c-.3333336.1924515-.3333311.6735783.0000044.8660265l46.2789671,26.7187306c1.2375818.7145063,2.7623352.7145124,3.9999227.0000159l46.2635668-26.7093491c.3333386-.1924464.3333429-.673576.0000078-.8660285l-5.0005995-2.8871171c-.1547013-.0893175-.3453017-.0893174-.5000029.0000002l-39.7629381,22.9573449Z"/>
  </g>
</svg>